<svg xmlns="http://www.w3.org/2000/svg" width="512" height="512" x="0" y="0" version="1.1" viewBox="0 0 512 512"><mask id="mask"><rect width="512" height="16" x="0" y="144" fill="#fff"/><rect width="512" height="256" x="0" y="176" fill="#fff"/></mask><rect width="304" height="288" x="104" y="152" fill="#fff" stroke="#000" stroke-width="16" rx="10" ry="10"/><rect width="240" height="224" x="136" y="184" fill="#000" stroke="#000" stroke-width="16" rx="10" ry="10"/><rect width="64" height="64" x="104" y="212" fill="#fff" stroke="#000" stroke-width="16"/><rect width="64" height="64" x="104" y="324" fill="#fff" stroke="#000" stroke-width="16"/><path fill="#000" d="M 280 304 v -240 l 56 56 l 11.3 -11.3 l -75.3 -75.3 l -75.3 75.3 l 11.3 11.3 l 56 -56 v 240 z"/><path fill="#fff" d="M 280 304 v -240 l 56 56 l 11.3 -11.3 l -75.3 -75.3 l -75.3 75.3 l 11.3 11.3 l 56 -56 v 240 z" mask="url(#mask)"/></svg>