<svg xmlns="http://www.w3.org/2000/svg" width="512" height="512" x="0" y="0" version="1.1" viewBox="176 80 352 352"><path fill="#000" d="M 416 245 a 90 90 0 1 0 -128 0 v 112 a 64 64 0 0 0 128 0 Z"/><path fill="#fff" d="M 408 357 V 241 a 82 82 0 0 0 -8 -126 V 386 a 56 56 0 0 0 8 -29 M 296 357 V 241 a 82 82 0 0 1 8 -126 V 386 a 56 56 0 0 1 -8 -29"/><path fill-opacity="0" stroke="#fff" stroke-linecap="round" stroke-width="16" d="M 381 125 h -12 a 16 16 0 0 0 -16 16 v 80 a 16 16 0 0 1 -16 16 h -12 M 338 176 h 30"/></svg>