<svg xmlns="http://www.w3.org/2000/svg" width="512" height="512" x="0" y="0" version="1.1" viewBox="0 0 512 512"><rect width="480" height="480" x="16" y="16" fill="#fff" stroke="#000" stroke-width="16" rx="10" ry="10"/><rect width="416" height="416" x="48" y="48" fill="transparent" stroke="#000" stroke-width="16" rx="10" ry="10"/><rect width="64" height="64" x="16" y="96" fill="#fff" stroke="#000" stroke-width="16"/><rect width="64" height="64" x="16" y="352" fill="#fff" stroke="#000" stroke-width="16"/><path fill="#000" d="M 416 245 a 90 90 0 1 0 -128 0 v 112 a 64 64 0 0 0 128 0 Z"/><path fill="#fff" d="M 408 357 V 241 a 82 82 0 0 0 -8 -126 V 386 a 56 56 0 0 0 8 -29 M 296 357 V 241 a 82 82 0 0 1 8 -126 V 386 a 56 56 0 0 1 -8 -29"/><path fill-opacity="0" stroke="#fff" stroke-linecap="round" stroke-width="16" d="M 381 125 h -12 a 16 16 0 0 0 -16 16 v 80 a 16 16 0 0 1 -16 16 h -12 M 338 176 h 30"/><ellipse cx="128" cy="192" fill="#000" rx="20" ry="12"/><ellipse cx="176" cy="192" fill="#000" rx="20" ry="12"/><ellipse cx="224" cy="192" fill="#000" rx="20" ry="12"/><ellipse cx="128" cy="224" fill="#000" rx="20" ry="12"/><ellipse cx="176" cy="224" fill="#000" rx="20" ry="12"/><ellipse cx="224" cy="224" fill="#000" rx="20" ry="12"/><ellipse cx="128" cy="256" fill="#000" rx="20" ry="12"/><ellipse cx="176" cy="256" fill="#000" rx="20" ry="12"/><ellipse cx="224" cy="256" fill="#000" rx="20" ry="12"/><ellipse cx="176" cy="288" fill="#000" rx="20" ry="12"/><path fill="#000" stroke="#000" d="M 75 500 a 30 30 0 0 0 60 0 Z"/><path fill="#000" stroke="#000" d="M 377 500 a 30 30 0 0 0 60 0 Z"/></svg>