<svg xmlns="http://www.w3.org/2000/svg" xmlns:xlink="http://www.w3.org/1999/xlink" width="256" height="222" preserveAspectRatio="xMidYMid" version="1.1" viewBox="0 0 256 222"><defs><linearGradient id="linearGradient-1" x1="0%" x2="100%" y1="0%" y2="100%"><stop offset="0%" stop-color="#F6C338"/><stop offset="52.278%" stop-color="#FFD351"/><stop offset="100%" stop-color="#F6C338"/></linearGradient><linearGradient id="linearGradient-2" x1="100%" x2="0%" y1="0%" y2="100%"><stop offset="0%" stop-color="#286EE6"/><stop offset="52.105%" stop-color="#4286FB"/><stop offset="100%" stop-color="#286EE6"/></linearGradient><linearGradient id="linearGradient-3" x1="65.289%" x2="35.995%" y1="0%" y2="100%"><stop offset="0%" stop-color="#069B5A"/><stop offset="53.103%" stop-color="#11AA62"/><stop offset="100%" stop-color="#069B5A"/></linearGradient></defs><g><path fill="url(#linearGradient-1)" d="M83.3,0 L172.3,0 L256,144.3 L166.8,144.3 L83.3,0 Z"/><path fill="url(#linearGradient-2)" d="M256,144.3 L211.4,221.4 L44.4,221.4 L89.1,144.3 L256,144.3 Z"/><path fill="url(#linearGradient-3)" d="M44.4,221.4 L0,144.3 L83.3,0 L128,77.3 L44.4,221.4 Z"/><path fill="#000" d="M44.4,221.4 L127.5,144.3 L89.1,144.3 L44.4,221.4 Z" opacity=".1"/><path fill="#000" d="M256,144.3 L166.9,144.3 L147.3,110.5 L256,144.3 Z" opacity=".1"/><path fill="#000" d="M83.3,0 L109,110 L128,77.3 L83.3,0 Z" opacity=".1"/></g></svg>